#!OML:ASF H:\MichaelJackson\Top Level 1\Subject 1\Session 1\male.ASF
:FULLY-SPECIFIED
:DEGREES
724
root 6.74061 16.6096 -3.96583 -168.446 171.705 -178.966
lowerback -1.86113 -2.89553 -0.51216
upperback -3.06896 -3.8513 0.710338
thorax -2.02343 -1.90742 1.00947
lowerneck -9.69528 -7.91209 2.02264
upperneck 13.8404 -11.2006 0.912883
head 5.71672 -5.27733 -0.894231
rclavicle 4.91868e-014 1.27222e-014
rhumerus -29.2848 20.2 -90.3725
rradius 127.494
rwrist -27.7877
rhand -17.5211 -18.2357
rfingers 7.12502
rthumb 8.73255 311.965
lclavicle 4.91868e-014 1.27222e-014
lhumerus -59.3852 -34.1172 115.486
lradius 55.3481
lwrist 21.4253
lhand -5.19691 11.0368
lfingers 7.12502
lthumb 20.6042 39.9632
rfemur -37.3264 -25.09 23.8631
rtibia 52.2075
rfoot -16.7432 -29.1995
rtoes 3.45847
lfemur -25.3465 29.3211 -28.8566
ltibia 40.7654
lfoot -34.986 28.0856
ltoes 26.3272
725
root 6.71318 16.5911 -3.92316 -168.411 172.237 -178.785
lowerback -1.89654 -2.94329 -0.590935
upperback -3.14075 -3.91495 0.699719
thorax -2.07183 -1.93735 1.04266
lowerneck -9.77813 -8.01031 1.86129
upperneck 13.8557 -11.3315 1.03272
head 5.75135 -5.33888 -0.847933
rclavicle 4.96962e-015 -3.97569e-015
rhumerus -32.0056 19.8728 -91.3248
rradius 126.804
rwrist -27.3567
rhand -17.1146 -18.4729
rfingers 7.12502
rthumb 9.12477 311.744
lclavicle 4.96962e-015 -3.97569e-015
lhumerus -59.4592 -34.1624 115.807
lradius 55.395
lwrist 20.694
lhand -4.53638 11.085
lfingers 7.12502
lthumb 21.2388 39.9414
rfemur -36.9905 -24.6596 23.5916
rtibia 51.9838
rfoot -17.5391 -28.9576
rtoes 3.64782
lfemur -25.0715 28.3036 -28.5944
ltibia 40.9167
lfoot -34.4051 26.6332
ltoes 25.2679
726
root 6.68716 16.5717 -3.88007 -168.342 172.858 -178.602
lowerback -1.96141 -2.95057 -0.662224
upperback -3.21705 -3.92454 0.684905
thorax -2.11023 -1.94043 1.06604
lowerneck -9.85851 -8.10677 1.70977
upperneck 13.8299 -11.4597 1.15396
head 5.77256 -5.39942 -0.801326
rclavicle -4.55962e-015 -1.61016e-014
rhumerus -34.6913 19.4291 -92.2032
rradius 126.033
rwrist -26.8991
rhand -16.7559 -18.6285
rfingers 7.12502
rthumb 9.47084 311.604
lclavicle -4.55962e-015 -1.61016e-014
lhumerus -59.5304 -34.1741 116.073
lradius 55.5636
lwrist 19.9846
lhand -3.88195 11.13
lfingers 7.12502
lthumb 21.8673 39.9144
rfemur -36.663 -24.1582 23.3276
rtibia 51.7039
rfoot -18.4389 -28.7495
rtoes 3.90256
lfemur -24.7949 27.1666 -28.3536
ltibia 41.0164
lfoot -33.9064 24.9212
ltoes 24.3638
727
root 6.66289 16.5524 -3.83675 -168.236 173.569 -178.414
lowerback -2.05148 -2.92253 -0.71152
upperback -3.30264 -3.88709 0.658831
thorax -2.14739 -1.92056 1.06481
lowerneck -9.93195 -8.19468 1.58246
upperneck 13.7619 -11.5757 1.26281
head 5.77743 -5.45485 -0.759724
rclavicle -2.65378e-014 2.98177e-015
rhumerus -37.3291 18.8703 -93.0114
rradius 125.148
rwrist -26.302
rhand -16.4659 -18.6714
rfingers 7.12502
rthumb 9.75068 311.574
lclavicle -2.65378e-014 2.98177e-015
lhumerus -59.6091 -34.1584 116.293
lradius 55.8432
lwrist 19.4094
lhand -3.32702 11.1672
lfingers 7.12502
lthumb 22.4001 39.8884
rfemur -36.3562 -23.6244 23.0778
rtibia 51.3704
rfoot -19.346 -28.5669
rtoes 4.0168
lfemur -24.5324 25.9499 -28.1674
ltibia 41.0588
lfoot -33.5901 23.0801
ltoes 23.8457
728
root 6.64101 16.535 -3.79351 -168.097 174.376 -178.238
lowerback -2.17076 -2.85847 -0.717132
upperback -3.38435 -3.80167 0.628753
thorax -2.16838 -1.87787 1.03376
lowerneck -10.0076 -8.27112 1.47804
upperneck 13.6398 -11.6747 1.35829
head 5.76375 -5.50319 -0.722878
rclavicle -6.52511e-014 -1.39149e-015
rhumerus -39.8544 18.2041 -93.7156
rradius 124.102
rwrist -25.4389
rhand -16.2465 -18.6146
rfingers 7.12502
rthumb 9.9624 311.641
lclavicle -6.52511e-014 -1.39149e-015
lhumerus -59.6806 -34.1288 116.479
lradius 56.2212
lwrist 19.0285
lhand -3.0187 11.1651
lfingers 7.12502
lthumb 22.696 39.8504
rfemur -36.0877 -23.0934 22.862
rtibia 51.0024
rfoot -20.2253 -28.3462
rtoes 4.06576
lfemur -24.2919 24.7059 -28.0437
ltibia 41.0395
lfoot -33.5178 21.2894
ltoes 23.8715
729
root 6.62181 16.5207 -3.75116 -167.916 175.278 -178.094
lowerback -2.30761 -2.76117 -0.649537
upperback -3.46952 -3.67233 0.599089
thorax -2.18847 -1.81495 0.962104
lowerneck -10.0744 -8.3338 1.40279
upperneck 13.4582 -11.7536 1.43674
head 5.72719 -5.54317 -0.691804
rclavicle -3.34579e-014 6.16232e-015
rhumerus -42.2413 17.4523 -94.3145
rradius 122.869
rwrist -24.2889
rhand -16.1288 -18.4805
rfingers 7.12502
rthumb 10.0759 311.781
lclavicle -3.34579e-014 6.16232e-015
lhumerus -59.7355 -34.0818 116.633
lradius 56.6626
lwrist 18.886
lhand -2.89626 11.1857
lfingers 7.12502
lthumb 22.8135 39.8566
rfemur -35.9043 -22.5993 22.7124
rtibia 50.6329
rfoot -20.9556 -28.0566
rtoes 3.87986
lfemur -24.1055 23.5023 -27.9874
ltibia 40.9602
lfoot -33.639 19.7783
ltoes 24.3582
730
root 6.60532 16.511 -3.70937 -167.715 176.261 -177.967
lowerback -2.43593 -2.64352 -0.534347
upperback -3.54875 -3.51641 0.572539
thorax -2.20991 -1.73993 0.867869
lowerneck -10.1404 -8.37907 1.35195
upperneck 13.2194 -11.8076 1.50246
head 5.67036 -5.57223 -0.664539
rclavicle 6.15487e-014 -7.15625e-015
rhumerus -44.4436 16.6342 -94.7849
rradius 121.426
rwrist -22.9048
rhand -16.0772 -18.3436
rfingers 7.12502
rthumb 10.1257 311.92
lclavicle 6.15487e-014 -7.15625e-015
lhumerus -59.7608 -34.0056 116.76
lradius 57.1174
lwrist 18.942
lhand -3.05117 11.1214
lfingers 7.12502
lthumb 22.6649 39.8105
rfemur -35.8088 -22.2076 22.6029
rtibia 50.3013
rfoot -21.5101 -27.6214
rtoes 3.57901
lfemur -23.95 22.4145 -28.0123
ltibia 40.8216
lfoot -33.8934 18.6898
ltoes 25.1148
731
root 6.59158 16.5059 -3.66905 -167.49 177.338 -177.87
lowerback -2.54989 -2.50815 -0.370423
upperback -3.61628 -3.33745 0.558275
thorax -2.22896 -1.65456 0.75986
lowerneck -10.2137 -8.40229 1.32766
upperneck 12.922 -11.8312 1.55775
head 5.59414 -5.58739 -0.640602
rclavicle -1.56543e-014 -1.09332e-014
rhumerus -46.4105 15.7846 -95.1156
rradius 119.759
rwrist -21.4281
rhand -16.115 -18.2814
rfingers 7.12502
rthumb 10.0892 311.98
lclavicle -1.56543e-014 -1.09332e-014
lhumerus -59.7149 -33.8811 116.845
lradius 57.5342
lwrist 19.1567
lhand -3.44392 10.993
lfingers 7.12502
lthumb 22.2879 39.7277
rfemur -35.8424 -21.9376 22.5515
rtibia 50.0463
rfoot -21.8005 -27.0017
rtoes 3.00066
lfemur -23.8453 21.5087 -28.1096
ltibia 40.6289
lfoot -34.2246 18.0722
ltoes 25.9917
